<?xml version="1.0" encoding="utf-8"?><svg viewBox="0 0 73 167" xmlns="http://www.w3.org/2000/svg" xmlns:xlink="http://www.w3.org/1999/xlink"><style>:root>svg{display:none}:root>svg:target{display:block}</style><svg fill="none" viewBox="0 0 52 41" id="arrow-1" xmlns="http://www.w3.org/2000/svg"><path d="M51.148 38.989a1 1 0 00.841-1.137l-1.33-8.901a1 1 0 00-1.978.296l1.182 7.912-7.912 1.182a1 1 0 00.296 1.978l8.9-1.33zM.405 1.804l50 37 1.19-1.608-50-37-1.19 1.608z" fill="#000"/></svg><svg fill="none" viewBox="0 0 67 101" id="arrow-2" xmlns="http://www.w3.org/2000/svg"><path d="M59.74 96.966a1 1 0 001.226-.706l2.337-8.691a1 1 0 00-1.931-.52l-2.078 7.726-7.725-2.078a1 1 0 00-.52 1.931l8.691 2.338zM6.133 4.499l53 92 1.733-.998-53-92-1.732.998z" fill="#000"/></svg><svg fill="none" viewBox="0 0 38 49" id="arrow-3" xmlns="http://www.w3.org/2000/svg"><path d="M6.03 44.242a1 1 0 001.213.728l8.73-2.183a1 1 0 10-.484-1.94l-7.761 1.94-1.94-7.76a1 1 0 10-1.941.484l2.183 8.731zM30.142 3.486l-24 40 1.715 1.029 24-40-1.715-1.03z" fill="#000"/></svg><svg fill="none" viewBox="0 0 67 39" id="arrow-4" xmlns="http://www.w3.org/2000/svg"><path d="M63.394 31.92a1 1 0 00.525-1.314l-3.545-8.272a1 1 0 00-1.838.788l3.15 7.353-7.352 3.151a1 1 0 10.788 1.838l8.272-3.545zM2.629 7.927l60 24 .742-1.857-60-24-.742 1.857z" fill="#000"/></svg><svg fill="none" viewBox="0 0 73 60" id="arrow-5" xmlns="http://www.w3.org/2000/svg"><path d="M6.023 6.077a1 1 0 00-.855 1.126l1.217 8.918a1 1 0 101.982-.27L7.285 7.923l7.926-1.082a1 1 0 00-.27-1.982L6.023 6.077zm62.423 47.059L6.764 6.272l-1.21 1.592 61.684 46.864 1.21-1.592z" fill="#000"/></svg><svg fill="none" viewBox="0 0 71 167" id="arrow-5-1" xmlns="http://www.w3.org/2000/svg"><path d="M8.434 3.099a1 1 0 00-1.335.467l-3.904 8.11a1 1 0 101.802.867l3.47-7.208 7.208 3.47a1 1 0 10.868-1.802L8.433 3.1zm56.51 160.571l-56-160-1.888.66 56 160 1.888-.66z" fill="#000"/></svg><svg fill="none" viewBox="0 0 20 20" id="icon-list" xmlns="http://www.w3.org/2000/svg"><path d="M13.84 10l6.074-6.074a.293.293 0 000-.414L16.49.087a.293.293 0 00-.414 0L10 6.162 3.925.087a.293.293 0 00-.414 0L.086 3.512a.293.293 0 000 .414l6.075 6.075-2.52 2.52a.293.293 0 00.414.414l2.727-2.727a.293.293 0 000-.414L.707 3.719 3.718.709l6.075 6.074c.114.114.3.114.414 0L16.282.708l3.01 3.011-6.074 6.075a.293.293 0 000 .414l6.075 6.075-3.011 3.01-6.075-6.074a.293.293 0 00-.414 0l-6.075 6.075-3.01-3.011 2.519-2.52a.293.293 0 10-.415-.414L.086 16.076a.293.293 0 000 .414l3.425 3.425a.292.292 0 00.414 0L10 13.84l6.075 6.075a.293.293 0 00.414 0l3.425-3.425a.293.293 0 000-.414L13.84 10z" fill="#fff"/></svg></svg>